<svg xmlns="http://www.w3.org/2000/svg" xmlns:xlink="http://www.w3.org/1999/xlink" width="1200" zoomAndPan="magnify" viewBox="0 0 900 225" height="300" preserveAspectRatio="xMidYMid meet" version="1.0"><path fill="#1c8f75" d="M 307.441406 204.800781 C 320.285156 204.800781 333.269531 201.097656 340.800781 187.082031 L 325.300781 181.613281 C 322.207031 187.222656 315.566406 188.707031 309.066406 188.707031 C 300.941406 188.707031 291.503906 185.753906 289.722656 175.425781 L 344.644531 175.425781 C 344.785156 173.800781 344.785156 172.175781 344.785156 170.691406 C 344.785156 147.378906 330.613281 132.175781 307.878906 132.175781 C 285.894531 132.175781 270.238281 146.925781 270.238281 168.488281 C 270.238281 190.035156 285.738281 204.800781 307.441406 204.800781 Z M 289.722656 161.097656 C 291.644531 152.691406 299.472656 148.113281 308.035156 148.113281 C 315.847656 148.113281 324.410156 152.238281 326.332031 161.097656 Z M 289.722656 161.097656 " fill-opacity="1" fill-rule="nonzero"/><path fill="#1c8f75" d="M 363.523438 203.613281 L 382.570312 203.613281 L 382.570312 148.113281 L 407.523438 148.113281 L 407.523438 133.347656 L 382.570312 133.347656 L 382.570312 130.253906 C 382.273438 120.503906 388.617188 115.488281 396.007812 115.488281 C 399.101562 115.488281 403.679688 116.378906 406.632812 118.441406 L 413.132812 105.597656 C 407.664062 100.878906 400.289062 99.113281 394.085938 99.253906 C 374.007812 99.253906 363.523438 112.238281 363.523438 130.253906 L 363.523438 133.347656 L 350.398438 133.347656 L 350.398438 148.113281 L 363.523438 148.113281 Z M 363.523438 203.613281 " fill-opacity="1" fill-rule="nonzero"/><path fill="#1c8f75" d="M 453.128906 204.800781 C 465.972656 204.800781 478.957031 201.097656 486.488281 187.082031 L 470.988281 181.613281 C 467.894531 187.222656 461.253906 188.707031 454.753906 188.707031 C 446.628906 188.707031 437.191406 185.753906 435.410156 175.425781 L 490.332031 175.425781 C 490.472656 173.800781 490.472656 172.175781 490.472656 170.691406 C 490.472656 147.378906 476.300781 132.175781 453.566406 132.175781 C 431.582031 132.175781 415.925781 146.925781 415.925781 168.488281 C 415.925781 190.035156 431.425781 204.800781 453.128906 204.800781 Z M 435.410156 161.097656 C 437.332031 152.691406 445.160156 148.113281 453.722656 148.113281 C 461.535156 148.113281 470.097656 152.238281 472.019531 161.097656 Z M 435.410156 161.097656 " fill-opacity="1" fill-rule="nonzero"/><path fill="#1c8f75" d="M 503.761719 203.613281 L 522.808594 203.613281 L 522.808594 166.269531 C 523.246094 155.785156 531.355469 149.003906 540.808594 149.003906 C 545.230469 149.003906 549.667969 150.769531 552.917969 153.722656 L 561.324219 141.019531 C 555.714844 134.082031 546.574219 131.722656 539.636719 131.722656 C 534.027344 131.722656 526.339844 133.503906 521.183594 141.613281 L 519.996094 133.347656 L 503.761719 133.347656 Z M 503.761719 203.613281 " fill-opacity="1" fill-rule="nonzero"/><path fill="#1c8f75" d="M 600.886719 204.800781 C 613.730469 204.800781 626.714844 201.097656 634.246094 187.082031 L 618.746094 181.613281 C 615.652344 187.222656 609.011719 188.707031 602.511719 188.707031 C 594.386719 188.707031 584.949219 185.753906 583.167969 175.425781 L 638.089844 175.425781 C 638.230469 173.800781 638.230469 172.175781 638.230469 170.691406 C 638.230469 147.378906 624.058594 132.175781 601.324219 132.175781 C 579.339844 132.175781 563.683594 146.925781 563.683594 168.488281 C 563.683594 190.035156 579.183594 204.800781 600.886719 204.800781 Z M 583.167969 161.097656 C 585.089844 152.691406 592.917969 148.113281 601.480469 148.113281 C 609.292969 148.113281 617.855469 152.238281 619.777344 161.097656 Z M 583.167969 161.097656 " fill-opacity="1" fill-rule="nonzero"/><path fill="#1c8f75" d="M 651.515625 203.613281 L 670.703125 203.613281 L 670.703125 167.300781 C 670.703125 153.722656 679.859375 148.253906 688.71875 148.253906 C 696.984375 148.410156 704.953125 153.425781 704.796875 167.300781 L 704.796875 203.613281 L 724.140625 203.613281 L 724.140625 167.738281 C 724.140625 140.878906 706.125 132.175781 689 132.175781 C 681.78125 132.175781 673.65625 135.128906 669.671875 141.910156 L 667.890625 133.347656 L 651.515625 133.347656 Z M 651.515625 203.613281 " fill-opacity="1" fill-rule="nonzero"/><path fill="#1c8f75" d="M 777.417969 204.941406 C 782.292969 204.941406 787.902344 203.613281 794.542969 200.222656 L 789.527344 186.347656 C 786.136719 188.113281 782.886719 188.847656 779.933594 188.847656 C 771.527344 188.847656 765.324219 182.660156 765.464844 174.097656 L 765.464844 147.675781 L 790.558594 147.675781 L 790.558594 133.347656 L 765.464844 133.347656 L 765.464844 100.285156 L 746.714844 100.285156 L 746.714844 133.347656 L 733.730469 133.347656 L 733.730469 147.675781 L 746.714844 147.675781 L 746.714844 174.097656 C 746.714844 192.097656 757.496094 204.800781 777.417969 204.941406 Z M 777.417969 204.941406 " fill-opacity="1" fill-rule="nonzero"/><path fill="#1c8f75" d="M 828.351562 205.082031 C 837.945312 205.082031 848.273438 201.394531 853.148438 193.722656 L 854.914062 203.613281 L 872.039062 203.613281 L 871.304688 188.550781 L 871.304688 161.832031 C 871.304688 141.910156 852.554688 130.988281 834.398438 130.988281 C 822.289062 130.988281 810.195312 134.238281 802.664062 145.894531 L 814.773438 156.378906 C 818.601562 151.207031 825.992188 148.253906 833.070312 148.253906 C 841.195312 148.253906 849.164062 151.957031 851.664062 160.222656 L 829.382812 160.222656 C 813.882812 160.222656 798.976562 165.675781 798.976562 181.769531 C 798.976562 198.300781 813.742188 204.941406 828.351562 205.082031 Z M 830.273438 188.847656 C 825.539062 188.847656 818.007812 187.082031 818.007812 181.613281 C 818.007812 176.753906 823.617188 174.097656 828.789062 174.097656 L 852.117188 174.097656 C 850.492188 186.050781 838.976562 188.847656 830.273438 188.847656 Z M 830.273438 188.847656 " fill-opacity="1" fill-rule="nonzero"/><path fill="#c2ddd4" d="M 115.574219 95.582031 L 115.574219 170.679688 C 115.574219 176.191406 115.707031 180.746094 115.984375 184.339844 C 116.257812 187.933594 116.847656 190.980469 117.757812 193.488281 C 118.671875 196 119.894531 198.128906 121.445312 199.886719 C 122.996094 201.640625 125.136719 203.4375 127.871094 205.273438 L 51.617188 205.273438 C 54.355469 203.4375 56.496094 201.679688 58.042969 200.011719 C 59.59375 198.335938 60.820312 196.25 61.734375 193.742188 C 62.640625 191.234375 63.234375 188.1875 63.511719 184.589844 C 63.78125 180.996094 63.917969 176.355469 63.917969 170.679688 L 63.917969 95.578125 C 63.914062 90.015625 63.777344 85.464844 63.511719 81.929688 C 63.234375 78.335938 62.640625 75.285156 61.734375 72.777344 C 60.820312 70.273438 59.59375 68.183594 58.042969 66.511719 C 56.496094 64.835938 54.355469 63.082031 51.617188 61.242188 L 127.871094 61.242188 C 125.136719 63.082031 122.996094 64.878906 121.445312 66.632812 C 119.894531 68.390625 118.671875 70.523438 117.757812 73.03125 C 116.847656 75.535156 116.257812 78.582031 115.984375 82.179688 C 115.710938 85.714844 115.578125 90.1875 115.574219 95.582031 Z M 115.574219 95.582031 " fill-opacity="1" fill-rule="nonzero"/><path fill="#1c8f75" d="M 48.753906 56.859375 L 125.84375 56.859375 C 128.542969 56.859375 153.664062 56.941406 155.605469 57.105469 C 157.546875 57.273438 159.441406 57.609375 161.300781 58.113281 C 166.363281 59.449219 170.496094 62.457031 173.699219 67.132812 C 176.90625 71.816406 178.511719 77.332031 178.511719 83.683594 C 178.511719 92.207031 175.851562 99.394531 170.539062 105.242188 C 165.222656 111.089844 157.925781 114.9375 148.640625 116.777344 L 143.628906 117.730469 L 148.640625 127.054688 C 156.234375 142.929688 162.480469 155.507812 167.375 164.789062 C 172.265625 174.0625 176.574219 181.371094 180.285156 186.71875 C 182.980469 190.734375 185.515625 193.992188 187.875 196.496094 C 190.242188 199.003906 192.855469 201.011719 195.726562 202.515625 C 198.589844 204.019531 201.839844 205.023438 205.46875 205.527344 C 209.09375 206.027344 213.527344 206.277344 218.757812 206.277344 C 224.496094 206.277344 230.316406 206.109375 236.222656 205.777344 C 242.128906 205.441406 248.628906 204.855469 255.710938 204.019531 C 242.214844 193.824219 221.964844 165.578125 194.964844 119.285156 C 206.78125 114.265625 215.46875 108.292969 221.039062 101.359375 C 228.308594 92.300781 231.242188 80.992188 230.550781 69.722656 C 229.101562 46.082031 211.6875 22.621094 184.839844 20.496094 C 180.625 20.160156 175.011719 19.949219 168.007812 19.871094 C 162.886719 19.808594 145.03125 19.769531 137.242188 19.75 C 134.386719 19.746094 85.875 19.742188 82.660156 19.742188 L 22.683594 19.742188 C 22.683594 33.945312 34.417969 56.859375 48.753906 56.859375 Z M 48.753906 56.859375 " fill-opacity="1" fill-rule="evenodd"/><path fill="#3f9a82" d="M 103.566406 81.539062 C 103.566406 79.394531 101.828125 77.652344 99.683594 77.652344 C 97.542969 77.652344 95.800781 79.394531 95.800781 81.539062 L 95.800781 184.980469 C 95.800781 187.125 97.542969 188.867188 99.683594 188.867188 C 101.828125 188.867188 103.566406 187.125 103.566406 184.980469 Z M 103.566406 81.539062 " fill-opacity="1" fill-rule="evenodd"/><path fill="#3f9a82" d="M 83.667969 81.539062 C 83.667969 79.394531 81.929688 77.652344 79.785156 77.652344 C 77.640625 77.652344 75.902344 79.394531 75.902344 81.539062 L 75.902344 184.980469 C 75.902344 187.125 77.640625 188.867188 79.785156 188.867188 C 81.929688 188.867188 83.667969 187.125 83.667969 184.980469 Z M 83.667969 81.539062 " fill-opacity="1" fill-rule="evenodd"/></svg>