<svg xmlns="http://www.w3.org/2000/svg" xmlns:xlink="http://www.w3.org/1999/xlink" width="1200" zoomAndPan="magnify" viewBox="0 0 900 225" height="300" preserveAspectRatio="xMidYMid meet" version="1.0"><defs><g/><clipPath id="1cd88546dd"><path d="M 0 0 L 225 0 L 225 225 L 0 225 Z M 0 0 " clip-rule="nonzero"/></clipPath><clipPath id="1c68254f6d"><path d="M 35.25 0 L 189.75 0 C 209.21875 0 225 15.78125 225 35.25 L 225 189.75 C 225 209.21875 209.21875 225 189.75 225 L 35.25 225 C 15.78125 225 0 209.21875 0 189.75 L 0 35.25 C 0 15.78125 15.78125 0 35.25 0 Z M 35.25 0 " clip-rule="nonzero"/></clipPath></defs><g clip-path="url(#1cd88546dd)"><g clip-path="url(#1c68254f6d)"><path fill="#1c8f75" d="M 0 0 L 225 0 L 225 225 L 0 225 Z M 0 0 " fill-opacity="1" fill-rule="nonzero"/></g></g><g fill="#ffffff" fill-opacity="1"><g transform="translate(256.851404, 168.848797)"><g><path d="M 38.953125 1.1875 C 51.796875 1.1875 64.78125 -2.515625 72.3125 -16.53125 L 56.8125 -21.984375 C 53.71875 -16.375 47.078125 -14.90625 40.578125 -14.90625 C 32.46875 -14.90625 23.015625 -17.859375 21.25 -28.1875 L 76.140625 -28.1875 C 76.296875 -29.8125 76.296875 -31.4375 76.296875 -32.90625 C 76.296875 -56.21875 62.125 -71.421875 39.40625 -71.421875 C 17.40625 -71.421875 1.765625 -56.65625 1.765625 -35.125 C 1.765625 -13.578125 17.265625 1.1875 38.953125 1.1875 Z M 21.25 -42.5 C 23.171875 -50.90625 30.984375 -55.484375 39.546875 -55.484375 C 47.375 -55.484375 55.921875 -51.359375 57.84375 -42.5 Z M 21.25 -42.5 "/></g></g></g><g fill="#ffffff" fill-opacity="1"><g transform="translate(340.517318, 168.848797)"><g><path d="M 11.359375 0 L 30.390625 0 L 30.390625 -55.484375 L 55.34375 -55.484375 L 55.34375 -70.234375 L 30.390625 -70.234375 L 30.390625 -73.34375 C 30.109375 -83.078125 36.453125 -88.09375 43.828125 -88.09375 C 46.921875 -88.09375 51.5 -87.203125 54.453125 -85.140625 L 60.9375 -97.984375 C 55.484375 -102.703125 48.109375 -104.46875 41.90625 -104.328125 C 21.84375 -104.328125 11.359375 -91.34375 11.359375 -73.34375 L 11.359375 -70.234375 L -1.765625 -70.234375 L -1.765625 -55.484375 L 11.359375 -55.484375 Z M 11.359375 0 "/></g></g></g><g fill="#ffffff" fill-opacity="1"><g transform="translate(402.492072, 168.848797)"><g><path d="M 38.953125 1.1875 C 51.796875 1.1875 64.78125 -2.515625 72.3125 -16.53125 L 56.8125 -21.984375 C 53.71875 -16.375 47.078125 -14.90625 40.578125 -14.90625 C 32.46875 -14.90625 23.015625 -17.859375 21.25 -28.1875 L 76.140625 -28.1875 C 76.296875 -29.8125 76.296875 -31.4375 76.296875 -32.90625 C 76.296875 -56.21875 62.125 -71.421875 39.40625 -71.421875 C 17.40625 -71.421875 1.765625 -56.65625 1.765625 -35.125 C 1.765625 -13.578125 17.265625 1.1875 38.953125 1.1875 Z M 21.25 -42.5 C 23.171875 -50.90625 30.984375 -55.484375 39.546875 -55.484375 C 47.375 -55.484375 55.921875 -51.359375 57.84375 -42.5 Z M 21.25 -42.5 "/></g></g></g><g fill="#ffffff" fill-opacity="1"><g transform="translate(486.157986, 168.848797)"><g><path d="M 5.90625 0 L 24.9375 0 L 24.9375 -37.328125 C 25.375 -47.8125 33.5 -54.59375 42.9375 -54.59375 C 47.375 -54.59375 51.796875 -52.828125 55.046875 -49.875 L 63.453125 -62.5625 C 57.84375 -69.5 48.703125 -71.859375 41.765625 -71.859375 C 36.15625 -71.859375 28.484375 -70.09375 23.3125 -61.96875 L 22.140625 -70.234375 L 5.90625 -70.234375 Z M 5.90625 0 "/></g></g></g><g fill="#ffffff" fill-opacity="1"><g transform="translate(550.198558, 168.848797)"><g><path d="M 38.953125 1.1875 C 51.796875 1.1875 64.78125 -2.515625 72.3125 -16.53125 L 56.8125 -21.984375 C 53.71875 -16.375 47.078125 -14.90625 40.578125 -14.90625 C 32.46875 -14.90625 23.015625 -17.859375 21.25 -28.1875 L 76.140625 -28.1875 C 76.296875 -29.8125 76.296875 -31.4375 76.296875 -32.90625 C 76.296875 -56.21875 62.125 -71.421875 39.40625 -71.421875 C 17.40625 -71.421875 1.765625 -56.65625 1.765625 -35.125 C 1.765625 -13.578125 17.265625 1.1875 38.953125 1.1875 Z M 21.25 -42.5 C 23.171875 -50.90625 30.984375 -55.484375 39.546875 -55.484375 C 47.375 -55.484375 55.921875 -51.359375 57.84375 -42.5 Z M 21.25 -42.5 "/></g></g></g><g fill="#ffffff" fill-opacity="1"><g transform="translate(633.864484, 168.848797)"><g><path d="M 5.90625 0 L 25.078125 0 L 25.078125 -36.296875 C 25.078125 -49.875 34.234375 -55.34375 43.09375 -55.34375 C 51.359375 -55.1875 59.3125 -50.171875 59.171875 -36.296875 L 59.171875 0 L 78.5 0 L 78.5 -35.859375 C 78.5 -62.71875 60.5 -71.421875 43.390625 -71.421875 C 36.15625 -71.421875 28.03125 -68.46875 24.046875 -61.6875 L 22.28125 -70.234375 L 5.90625 -70.234375 Z M 5.90625 0 "/></g></g></g><g fill="#ffffff" fill-opacity="1"><g transform="translate(722.252266, 168.848797)"><g><path d="M 43.390625 1.328125 C 48.25 1.328125 53.859375 0 60.5 -3.390625 L 55.484375 -17.265625 C 52.09375 -15.5 48.84375 -14.75 45.890625 -14.75 C 37.484375 -14.75 31.28125 -20.953125 31.4375 -29.515625 L 31.4375 -55.921875 L 56.515625 -55.921875 L 56.515625 -70.234375 L 31.4375 -70.234375 L 31.4375 -103.296875 L 12.6875 -103.296875 L 12.6875 -70.234375 L -0.296875 -70.234375 L -0.296875 -55.921875 L 12.6875 -55.921875 L 12.6875 -29.515625 C 12.6875 -11.515625 23.46875 1.1875 43.390625 1.328125 Z M 43.390625 1.328125 "/></g></g></g><g fill="#ffffff" fill-opacity="1"><g transform="translate(785.259917, 168.848797)"><g><path d="M 31.28125 1.46875 C 40.875 1.46875 51.203125 -2.21875 56.078125 -9.890625 L 57.84375 0 L 74.96875 0 L 74.21875 -15.046875 L 74.21875 -41.765625 C 74.21875 -61.6875 55.484375 -72.59375 37.328125 -72.59375 C 25.234375 -72.59375 13.140625 -69.359375 5.609375 -57.703125 L 17.703125 -47.21875 C 21.546875 -52.390625 28.921875 -55.34375 36 -55.34375 C 44.125 -55.34375 52.09375 -51.640625 54.59375 -43.390625 L 32.3125 -43.390625 C 16.828125 -43.390625 1.921875 -37.921875 1.921875 -21.84375 C 1.921875 -5.3125 16.671875 1.328125 31.28125 1.46875 Z M 33.203125 -14.75 C 28.484375 -14.75 20.953125 -16.53125 20.953125 -21.984375 C 20.953125 -26.859375 26.5625 -29.515625 31.71875 -29.515625 L 55.046875 -29.515625 C 53.421875 -17.5625 41.90625 -14.75 33.203125 -14.75 Z M 33.203125 -14.75 "/></g></g></g><path fill="#d6e8e2" d="M 97.871094 101.585938 L 97.871094 148.046875 C 97.871094 151.453125 97.957031 154.273438 98.125 156.5 C 98.296875 158.71875 98.664062 160.605469 99.226562 162.160156 C 99.792969 163.710938 100.554688 165.027344 101.515625 166.113281 C 102.480469 167.199219 103.808594 168.3125 105.503906 169.449219 L 58.179688 169.449219 C 59.875 168.3125 61.203125 167.222656 62.164062 166.191406 C 63.125 165.15625 63.890625 163.867188 64.457031 162.316406 C 65.019531 160.761719 65.386719 158.878906 65.558594 156.652344 C 65.726562 154.429688 65.8125 151.558594 65.8125 148.046875 L 65.8125 101.585938 C 65.808594 98.140625 65.722656 95.328125 65.558594 93.136719 C 65.386719 90.914062 65.019531 89.027344 64.457031 87.476562 C 63.890625 85.925781 63.125 84.632812 62.164062 83.597656 C 61.203125 82.566406 59.875 81.476562 58.179688 80.339844 L 105.503906 80.339844 C 103.808594 81.476562 102.480469 82.589844 101.515625 83.675781 C 100.554688 84.761719 99.792969 86.082031 99.226562 87.632812 C 98.664062 89.183594 98.296875 91.066406 98.125 93.292969 C 97.957031 95.480469 97.875 98.246094 97.871094 101.585938 Z M 97.871094 101.585938 " fill-opacity="1" fill-rule="nonzero"/><path fill="#3f9a82" d="M 90.421875 92.898438 C 90.421875 91.570312 89.339844 90.492188 88.011719 90.492188 C 86.679688 90.492188 85.601562 91.570312 85.601562 92.898438 L 85.601562 156.894531 C 85.601562 158.222656 86.679688 159.296875 88.011719 159.296875 C 89.339844 159.296875 90.421875 158.222656 90.421875 156.894531 Z M 90.421875 92.898438 " fill-opacity="1" fill-rule="evenodd"/><path fill="#3f9a82" d="M 78.070312 92.898438 C 78.070312 91.570312 76.988281 90.492188 75.660156 90.492188 C 74.328125 90.492188 73.25 91.570312 73.25 92.898438 L 73.25 156.894531 C 73.25 158.222656 74.328125 159.296875 75.660156 159.296875 C 76.988281 159.296875 78.070312 158.222656 78.070312 156.894531 Z M 78.070312 92.898438 " fill-opacity="1" fill-rule="evenodd"/><path fill="#ffffff" d="M 56.398438 77.628906 L 104.246094 77.628906 C 105.921875 77.628906 121.511719 77.675781 122.71875 77.78125 C 123.921875 77.882812 125.101562 78.089844 126.253906 78.402344 C 129.394531 79.230469 131.960938 81.089844 133.949219 83.988281 C 135.9375 86.878906 136.9375 90.292969 136.9375 94.222656 C 136.9375 99.496094 135.285156 103.945312 131.988281 107.5625 C 128.6875 111.179688 124.160156 113.558594 118.394531 114.699219 L 115.285156 115.289062 L 118.394531 121.054688 C 123.109375 130.878906 126.984375 138.660156 130.023438 144.402344 C 133.058594 150.140625 135.734375 154.660156 138.035156 157.96875 C 139.710938 160.449219 141.28125 162.46875 142.746094 164.019531 C 144.21875 165.570312 145.839844 166.8125 147.621094 167.742188 C 149.398438 168.671875 151.414062 169.292969 153.667969 169.605469 C 155.917969 169.914062 158.667969 170.070312 161.914062 170.070312 C 165.476562 170.070312 169.089844 169.964844 172.757812 169.761719 C 176.421875 169.554688 180.453125 169.191406 184.851562 168.671875 C 176.476562 162.367188 163.90625 144.890625 147.148438 116.25 C 154.480469 113.144531 159.875 109.449219 163.332031 105.160156 C 167.84375 99.554688 169.660156 92.558594 169.234375 85.585938 C 168.335938 70.964844 157.527344 56.445312 140.863281 55.132812 C 138.246094 54.925781 134.761719 54.792969 130.417969 54.746094 C 127.242188 54.707031 116.15625 54.683594 111.320312 54.667969 C 109.550781 54.667969 79.4375 54.664062 77.441406 54.664062 L 40.21875 54.664062 C 40.21875 63.453125 47.5 77.628906 56.398438 77.628906 Z M 56.398438 77.628906 " fill-opacity="1" fill-rule="evenodd"/></svg>